<svg width="43" height="59" viewBox="0 0 43 59" fill="none" xmlns="http://www.w3.org/2000/svg">
<path fill-rule="evenodd" clip-rule="evenodd" d="M0.554199 21.7911C0.554199 33.3945 9.96062 42.8009 21.564 42.8009C33.1674 42.8009 42.5738 33.3945 42.5738 21.7911C42.5738 10.1877 33.1674 0.78125 21.564 0.78125C9.96062 0.78125 0.554199 10.1877 0.554199 21.7911ZM17.7121 31.4207L18.0695 26.0652L18.0692 26.0649L27.8116 17.2732C28.2392 16.8937 27.7182 16.7087 27.1506 17.0529L15.1272 24.6383L9.93378 23.0173C8.81222 22.6739 8.80417 21.9032 10.1856 21.3492L30.4233 13.5456C31.3476 13.126 32.2397 13.7676 31.8869 15.1823L28.4404 31.4234C28.1997 32.5775 27.5024 32.8535 26.5362 32.3204L21.2861 28.4416L18.7626 30.8954C18.7546 30.9032 18.7467 30.9109 18.7388 30.9186C18.4566 31.1933 18.2231 31.4207 17.7121 31.4207Z" fill="white"/>
<path d="M14.3716 54.3113H15.4016C15.2416 55.098 14.8583 55.7413 14.2516 56.2413C13.6516 56.7413 12.9216 56.9913 12.0616 56.9913C11.0549 56.9913 10.2316 56.6547 9.5916 55.9813C8.95827 55.308 8.6416 54.4847 8.6416 53.5113C8.6416 52.5447 8.9616 51.7213 9.6016 51.0413C10.2416 50.3613 11.0616 50.0213 12.0616 50.0213C12.9016 50.0213 13.6216 50.268 14.2216 50.7613C14.8283 51.248 15.2149 51.878 15.3816 52.6513H14.3616C14.2149 52.158 13.9349 51.7547 13.5216 51.4413C13.1149 51.128 12.6349 50.9713 12.0816 50.9713C11.3683 50.9713 10.7783 51.2213 10.3116 51.7213C9.8516 52.2147 9.6216 52.8113 9.6216 53.5113C9.6216 54.218 9.8516 54.818 10.3116 55.3113C10.7783 55.798 11.3683 56.0413 12.0816 56.0413C12.6616 56.0413 13.1549 55.8813 13.5616 55.5613C13.9749 55.2347 14.2449 54.818 14.3716 54.3113ZM18.8271 51.7713C19.4605 51.7713 19.9705 51.978 20.3571 52.3913C20.7438 52.798 20.9371 53.3413 20.9371 54.0213V56.8613H19.9871V54.1913C19.9871 53.7513 19.8638 53.3913 19.6171 53.1113C19.3771 52.8313 19.0471 52.6913 18.6271 52.6913C18.1738 52.6913 17.8038 52.8513 17.5171 53.1713C17.2371 53.4847 17.0971 53.8913 17.0971 54.3913V56.8613H16.1471V49.6613H17.0971V52.5813H17.1371C17.5505 52.0413 18.1138 51.7713 18.8271 51.7713ZM25.8704 52.6313V51.9113H26.8104V56.8613H25.8704V56.0913H25.8304C25.4104 56.6913 24.8171 56.9947 24.0504 57.0013C23.3304 57.0147 22.7304 56.7747 22.2504 56.2813C21.7771 55.788 21.5404 55.1547 21.5404 54.3813C21.5404 53.608 21.7771 52.978 22.2504 52.4913C22.7238 52.0047 23.3271 51.7647 24.0604 51.7713C24.8204 51.778 25.4104 52.0647 25.8304 52.6313H25.8704ZM24.1904 56.0813C24.6838 56.0813 25.0838 55.918 25.3904 55.5913C25.7038 55.2647 25.8604 54.8613 25.8604 54.3813C25.8604 53.9013 25.7038 53.498 25.3904 53.1713C25.0838 52.8447 24.6838 52.6813 24.1904 52.6813C23.6838 52.6813 23.2738 52.8447 22.9604 53.1713C22.6471 53.498 22.4904 53.9013 22.4904 54.3813C22.4904 54.8613 22.6471 55.2647 22.9604 55.5913C23.2738 55.918 23.6838 56.0813 24.1904 56.0813ZM31.4671 51.9113V52.8313H29.2171V55.4413C29.2171 55.768 29.3838 55.9313 29.7171 55.9313H31.4671V56.8613H29.5271C29.1205 56.8613 28.8071 56.7547 28.5871 56.5413C28.3738 56.328 28.2671 56.0213 28.2671 55.6213V52.8313H27.3671V51.9113H28.2671V50.1613H29.2171V51.9113H31.4671Z" fill="white"/>
</svg>
