<svg width="64" height="64" xmlns="http://www.w3.org/2000/svg"><path fill="none" d="M-1-1h582v402H-1z"/><g fill="#ec644b"><path d="M14.215 46.99h-1.22c-1.654 0-3 1.346-3 3v1a1 1 0 001 1h19.994a1 1 0 001-1v-1c0-1.654-1.346-3-3-3h-1.22l-.499-1.996h11.711c1.654 0 3-1.346 3-3V15.01c0-1.654-1.346-3-3-3H3.003c-1.654 0-3 1.346-3 3v26.984c0 1.654 1.346 3 3 3h11.711l-.499 1.996zm-1.22 2h15.994a1 1 0 011 1H11.995a1 1 0 011-1zm12.714-2h-9.434l.499-1.996h8.436l.499 1.996zM3.003 14.01h35.979a1 1 0 011 1v23.984H2.003V15.01a1 1 0 011-1zm-1 27.984v-1h19.009c-.552 0-.994.447-.994 1s.452 1 1.005 1a1 1 0 100-2h18.959v1a1 1 0 01-1 1H3.003a1 1 0 01-1-1zM60.997 12.01H46.996c-1.654 0-3 1.346-3 3v33.98c0 1.654 1.346 3 3 3h14.001c1.654 0 3-1.346 3-3V15.01c0-1.655-1.346-3-3-3zm-15.001 5.996h16.001v.998H45.996v-.998zm1-3.996h14.001a1 1 0 011 1v.996H45.996v-.996a1 1 0 011-1zm14.001 35.98H46.996a1 1 0 01-1-1V21.004h16.001V48.99a1 1 0 01-1 1z"/><path d="M53.997 33.004c1.654 0 3-1.346 3-3s-1.346-3-3-3-3 1.346-3 3 1.346 3 3 3zm0-4a1 1 0 110 2 1 1 0 010-2zm4 10.002h-8a1 1 0 100 2h8a1 1 0 100-2zm0 3h-8a1 1 0 100 2h8a1 1 0 100-2zm0 3h-8a1 1 0 100 2h8a1 1 0 100-2z"/></g></svg>