<svg width="512" height="512" xmlns="http://www.w3.org/2000/svg"><path fill="none" d="M-1-1h582v402H-1z"/><g fill="#ec644b"><path d="M488.468 280.564h-8.532v-.516c0-31.316-20.21-57.985-48.265-67.696-1.81-20.15-18.783-35.998-39.396-35.998h-96.71V63.613c0-8.556-6.96-15.516-15.516-15.516h-48.097c-8.556 0-15.516 6.96-15.516 15.516v88.177c0 4.143 3.358 7.5 7.5 7.5s7.5-3.357 7.5-7.5V63.613c0-.285.231-.516.516-.516h48.097c.285 0 .516.231.516.516v112.742H119.726c-20.613 0-37.586 15.848-39.396 35.998-28.055 9.711-48.265 36.379-48.265 67.696v.516h-8.532C10.557 280.564 0 291.121 0 304.097v32.064c0 12.976 10.557 23.532 23.532 23.532h8.532v32.581c0 39.496 32.133 71.629 71.629 71.629h304.613c39.496 0 71.629-32.133 71.629-71.629v-32.581h8.532c12.976 0 23.532-10.556 23.532-23.532v-32.064c.001-12.976-10.556-23.533-23.531-23.533zM23.532 344.693c-4.705 0-8.532-3.827-8.532-8.532v-32.064c0-4.705 3.828-8.532 8.532-8.532h8.532v49.129h-8.532v-.001zm441.404 47.581c0 31.225-25.404 56.629-56.629 56.629H103.693c-31.225 0-56.629-25.404-56.629-56.629V280.048c0-31.225 25.404-56.629 56.629-56.629h248.502a7.5 7.5 0 000-15H103.693c-2.526 0-5.021.135-7.479.392 3.056-10.089 12.438-17.457 23.512-17.457h272.549c11.074 0 20.456 7.367 23.512 17.457a72.204 72.204 0 00-7.479-.392h-24.046a7.5 7.5 0 000 15h24.046c31.225 0 56.629 25.404 56.629 56.629v112.226h-.001zM497 336.161c0 4.705-3.828 8.532-8.532 8.532h-8.532v-49.129h8.532c4.705 0 8.532 3.828 8.532 8.532v32.065z"/><path d="M95.677 384.774c-12.976 0-23.532 10.557-23.532 23.532s10.557 23.532 23.532 23.532 23.532-10.557 23.532-23.532-10.556-23.532-23.532-23.532zm0 32.065c-4.705 0-8.532-3.828-8.532-8.532 0-4.705 3.828-8.532 8.532-8.532s8.532 3.827 8.532 8.532c0 4.704-3.827 8.532-8.532 8.532zm0-176.355c-12.976 0-23.532 10.557-23.532 23.532s10.557 23.532 23.532 23.532 23.532-10.557 23.532-23.532-10.556-23.532-23.532-23.532zm0 32.064c-4.705 0-8.532-3.828-8.532-8.532s3.828-8.532 8.532-8.532 8.532 3.828 8.532 8.532-3.827 8.532-8.532 8.532zm320.646 112.226c-12.976 0-23.532 10.557-23.532 23.532s10.557 23.532 23.532 23.532 23.532-10.557 23.532-23.532-10.557-23.532-23.532-23.532zm0 32.065c-4.705 0-8.532-3.828-8.532-8.532 0-4.705 3.828-8.532 8.532-8.532s8.532 3.827 8.532 8.532c0 4.704-3.828 8.532-8.532 8.532zm0-176.355c-12.976 0-23.532 10.557-23.532 23.532s10.557 23.532 23.532 23.532 23.532-10.557 23.532-23.532-10.557-23.532-23.532-23.532zm0 32.064c-4.705 0-8.532-3.828-8.532-8.532s3.828-8.532 8.532-8.532 8.532 3.828 8.532 8.532-3.828 8.532-8.532 8.532zm-173.722 24.526a7.5 7.5 0 00-9.656 4.389l-19.835 52.895c-1.428 3.809-5.122 6.368-9.24 6.368-4.068 0-7.762-2.559-9.19-6.368l-19.835-52.894a7.5 7.5 0 00-14.045 5.267l19.835 52.894c3.611 9.631 12.949 16.102 23.285 16.102 10.286 0 19.624-6.471 23.235-16.102l19.835-52.894a7.5 7.5 0 00-4.389-9.657zm101.06 23.055c0-12.976-10.557-23.532-23.532-23.532h-48.097a7.5 7.5 0 00-7.5 7.5v64.129c0 4.143 3.358 7.5 7.5 7.5s7.5-3.357 7.5-7.5v-56.629h40.597c4.705 0 8.532 3.828 8.532 8.532 0 4.705-3.828 8.532-8.532 8.532h-15.888a10.374 10.374 0 00-9.778 6.933 10.376 10.376 0 003.305 11.521l33.708 26.967a7.464 7.464 0 004.68 1.644 7.501 7.501 0 004.69-13.357l-23.385-18.708h2.667c12.976 0 23.533-10.557 23.533-23.532z"/></g></svg>