<svg width="512" height="512" xmlns="http://www.w3.org/2000/svg"><path fill="none" d="M-1-1h582v402H-1z"/><g fill="#ec644b"><path d="M370.594 27.027C334.85 9.097 296.294.002 255.998.002c-39.736 0-77.822 8.855-113.192 26.324a10.235 10.235 0 00-5.692 9.705 10.253 10.253 0 006.652 9.085c38.907 14.498 75.157 33.978 107.739 57.891a10.192 10.192 0 006.063 1.991c2.131 0 4.257-.66 6.063-1.991 32.102-23.563 67.761-42.823 105.987-57.241a10.242 10.242 0 006.614-9.055 10.229 10.229 0 00-5.638-9.684zm-113.026 55.09c-25.919-18.37-53.949-34.098-83.645-46.955 52.828-19.701 113.186-19.471 165.834.64-29.145 12.727-56.69 28.245-82.189 46.315z"/><path d="M416.609 56.643a10.236 10.236 0 00-11.746-.78c-24.893 15.098-63.394 39.801-105.422 71.739a10.225 10.225 0 00-4.027 7.494 10.235 10.235 0 003.022 7.944c14.843 14.678 28.786 30.666 41.442 47.526 58.391 77.862 81.294 138.815 89.478 180.687-29.551-67.426-84.896-136.043-165.134-204.6a10.223 10.223 0 00-13.307 0c-80.353 68.657-135.723 137.344-165.244 204.83 8.164-42.223 31.201-103.055 89.593-180.917 12.652-16.859 26.595-32.858 41.437-47.526a10.219 10.219 0 003.026-7.944 10.223 10.223 0 00-4.028-7.494c-42.777-32.497-81.918-57.541-107.226-72.829a10.253 10.253 0 00-11.671.74C35.284 104.419 0 177.498 0 256c0 62.404 22.712 122.526 63.949 169.271a10.208 10.208 0 004.202 2.862 10.183 10.183 0 002.481 4.432c48.811 51.228 114.642 79.433 185.365 79.433 71.118 0 139.625-29.956 187.951-82.184a10.2 10.2 0 002.586-5.283 10.224 10.224 0 004.928-3.202C490.499 375.214 512 316.503 512 256c0-77.802-34.769-150.461-95.391-199.357zM62.283 389.962C35.179 350.791 20.491 304.136 20.491 256c0-69.847 30.361-135.022 83.56-179.937 22.832 13.998 54.84 34.739 89.933 60.843a449.62 449.62 0 00-35.109 41.372c-71.143 94.851-92.014 166.75-96.592 211.684zm193.715 101.545c-63.184 0-122.126-24.473-166.605-69.047 20.196-76.121 76.731-154.953 168.176-234.496 90.414 78.642 146.719 156.634 167.495 231.995-44.209 45.534-105.502 71.548-169.066 71.548zm100.268-313.239a451.531 451.531 0 00-35.114-41.362c34.352-25.544 65.7-45.925 88.112-59.722 52.363 44.874 82.244 109.639 82.244 178.816a235.78 235.78 0 01-39.121 130.01c-5.362-44.464-26.753-115.242-96.121-207.742z"/></g></svg>