<svg width="184" height="40" viewBox="0 0 184 40" fill="none" xmlns="http://www.w3.org/2000/svg">
<path d="M27.5167 13.7458C27.8764 15.1756 27.7089 16.687 27.0449 18.0033C26.3809 19.3195 25.2649 20.3525 23.9013 20.9129C22.5377 21.4732 21.0178 21.5235 19.6201 21.0545C18.2224 20.5855 17.0406 19.6286 16.291 18.3591C17.6061 17.69 18.6553 16.5946 19.2671 15.2519C19.8789 13.9093 20.0172 12.3988 19.6593 10.9673C19.5416 10.4963 19.3708 10.0401 19.1502 9.60758C19.4522 9.4802 19.7636 9.37641 20.0816 9.29713C20.8629 9.09894 21.6757 9.05684 22.4733 9.17326C23.271 9.28968 24.0378 9.56232 24.7299 9.97557C25.4221 10.3888 26.0258 10.9346 26.5067 11.5815C26.9876 12.2285 27.3361 12.964 27.5323 13.7458H27.5167Z" fill="white"/>
<path d="M24.6668 30.392C23.4232 31.1855 21.9351 31.5041 20.4756 31.2892C19.0161 31.0743 17.683 30.3403 16.7208 29.222C15.7587 28.1036 15.232 26.6759 15.2375 25.2006C15.2429 23.7254 15.7801 22.3015 16.7505 21.1903C17.3572 21.7927 18.0767 22.2695 18.8678 22.5935C19.659 22.9175 20.5063 23.0823 21.3612 23.0786C22.2161 23.0748 23.0619 22.9026 23.8502 22.5716C24.6385 22.2407 25.3538 21.7576 25.9552 21.15C26.5459 21.8126 26.9854 22.5957 27.2433 23.4451C27.5012 24.2945 27.5713 25.1898 27.4487 26.069C27.3262 26.9481 27.0139 27.7901 26.5335 28.5366C26.0532 29.2831 25.4162 29.9162 24.6668 30.392Z" fill="white"/>
<path d="M8.02381 32.8693C6.89263 31.9233 6.14031 30.6012 5.90477 29.1455C5.66922 27.6897 5.96623 26.1979 6.74135 24.9434C7.51647 23.6888 8.71776 22.7557 10.125 22.315C11.5323 21.8743 13.0513 21.9556 14.4035 22.5439C13.7323 23.8576 13.5265 25.3601 13.8197 26.8059C14.1129 28.2517 14.8878 29.5553 16.0178 30.5037C16.3896 30.8144 16.7946 31.083 17.2254 31.3047C17.059 31.5845 16.8701 31.8503 16.6604 32.0994C16.1441 32.7174 15.5111 33.2276 14.7975 33.6008C14.0839 33.9739 13.3038 34.2028 12.5017 34.2743C11.6996 34.3458 10.8913 34.2586 10.1229 34.0175C9.35458 33.7764 8.64128 33.3862 8.02381 32.8693Z" fill="white"/>
<path d="M0.436497 17.8934C0.984716 16.5293 2.00484 15.4075 3.31095 14.7326C4.61706 14.0577 6.12219 13.8746 7.55202 14.2167C8.98185 14.5587 10.2412 15.4031 11.1005 16.596C11.9598 17.7889 12.3619 19.2508 12.2335 20.7154C10.7742 20.4867 9.28052 20.7617 7.99846 21.4953C6.7164 22.2289 5.72239 23.3772 5.18012 24.7512C4.99966 25.2017 4.87154 25.6715 4.79827 26.1513C3.93303 25.9567 3.12013 25.5772 2.41539 25.0389C1.71065 24.5005 1.13074 23.816 0.71548 23.0324C0.300223 22.2488 0.0594497 21.3846 0.0096855 20.4991C-0.0400787 19.6137 0.102347 18.7279 0.427184 17.9027L0.436497 17.8934Z" fill="white"/>
<path d="M12.3794 5.96915C13.8634 6.0353 15.273 6.63801 16.3461 7.66524C17.4192 8.69247 18.0829 10.0744 18.2138 11.5541C18.3447 13.0338 17.9339 14.5108 17.0578 15.7105C16.1817 16.9101 14.8998 17.7509 13.4504 18.0766C13.2026 16.6218 12.4686 15.2942 11.3684 14.3107C10.2682 13.3272 8.86692 12.7461 7.3936 12.6624C6.90885 12.6374 6.42282 12.6645 5.94382 12.7431C5.91162 12.4202 5.90436 12.0954 5.92209 11.7714C5.96573 10.9673 6.16743 10.1797 6.51564 9.45362C6.86385 8.72753 7.35175 8.07719 7.95144 7.53977C8.55114 7.00235 9.25087 6.58839 10.0106 6.32155C10.7704 6.05472 11.5753 5.94024 12.3794 5.98467V5.96915Z" fill="white"/>
<path d="M63.8141 13.7365L61.5479 15.1428C59.5796 12.5517 56.8943 11.255 53.4918 11.2529C50.7723 11.2529 48.5133 12.1222 46.7147 13.8607C45.8473 14.6674 45.1585 15.6469 44.6927 16.7361C44.227 17.8253 43.9947 19 44.0108 20.1845C44.005 21.7889 44.4342 23.3649 45.2525 24.745C46.0572 26.1503 47.2404 27.3012 48.6675 28.0667C50.1565 28.8646 51.8244 29.2695 53.5135 29.2433C56.7918 29.2433 59.47 27.9467 61.5479 25.3534L63.8141 26.8467C62.7409 28.448 61.2598 29.734 59.5238 30.572C57.6062 31.4765 55.506 31.9269 53.3862 31.8883C49.8679 31.8883 46.9445 30.7749 44.6161 28.5479C43.4972 27.5134 42.6089 26.2546 42.0093 24.8536C41.4096 23.4527 41.1121 21.941 41.136 20.4173C41.125 18.3107 41.6896 16.2411 42.769 14.4319C43.8322 12.61 45.3797 11.1185 47.2394 10.1229C49.1987 9.07557 51.3914 8.54155 53.6129 8.57069C55.0643 8.56629 56.5073 8.79264 57.8877 9.24125C59.1387 9.62795 60.3168 10.2196 61.374 10.9922C62.3599 11.7373 63.19 12.6687 63.8172 13.7334L63.8141 13.7365Z" fill="white"/>
<path d="M91.4284 9.12018V31.3357H88.5816V27.5141C87.4909 28.8875 86.1135 30.0063 84.5458 30.7924C83.0238 31.5238 81.354 31.8956 79.6655 31.879C78.1604 31.8984 76.6676 31.6049 75.2819 31.0171C73.8962 30.4292 72.6477 29.5598 71.6157 28.4641C70.5312 27.3745 69.6774 26.0776 69.105 24.6509C68.5327 23.2241 68.2537 21.6966 68.2846 20.1596C68.261 18.6375 68.5475 17.1264 69.1266 15.7185C69.7057 14.3106 70.5652 13.0352 71.6529 11.9701C72.6942 10.8735 73.9509 10.004 75.3442 9.41637C76.7375 8.8287 78.2373 8.53549 79.7494 8.55516C81.4659 8.53145 83.1624 8.92679 84.6917 9.70692C86.2438 10.5427 87.5749 11.7356 88.5753 13.187V9.12018H91.4284ZM79.976 11.3368C78.4253 11.3257 76.9003 11.7331 75.5617 12.516C74.2231 13.2989 73.1205 14.4284 72.37 15.7855C71.5869 17.1463 71.1747 18.6889 71.1747 20.259C71.1747 21.8291 71.5869 23.3717 72.37 24.7325C73.1264 26.1103 74.2422 27.2572 75.5987 28.0512C76.9128 28.8347 78.415 29.2467 79.9449 29.2433C81.5 29.2447 83.0284 28.8391 84.3781 28.0667C85.7369 27.33 86.8603 26.225 87.6192 24.8784C88.3848 23.492 88.7744 21.9295 88.7492 20.3459C88.7492 17.7858 87.9038 15.6447 86.2129 13.9228C85.4094 13.0829 84.44 12.4192 83.3663 11.974C82.2926 11.5288 81.1381 11.3118 79.976 11.3368Z" fill="white"/>
<path d="M100.763 9.12018V13.2057C101.773 11.7569 103.109 10.565 104.663 9.72555C106.185 8.94577 107.876 8.55035 109.586 8.57379C111.099 8.55457 112.6 8.84796 113.994 9.43558C115.388 10.0232 116.646 10.8924 117.689 11.9887C118.776 13.0543 119.635 14.3297 120.214 15.7375C120.793 17.1454 121.08 18.6562 121.057 20.1783C121.087 21.716 120.807 23.2439 120.233 24.6708C119.659 26.0976 118.803 27.3941 117.717 28.4827C116.073 30.1694 113.942 31.298 111.623 31.7096C109.304 32.1211 106.914 31.7949 104.79 30.7769C103.226 29.9798 101.85 28.8579 100.754 27.4862V39.4694H97.9105V9.12018H100.763ZM109.378 11.3368C108.216 11.3102 107.06 11.5258 105.985 11.9699C104.911 12.4141 103.94 13.077 103.135 13.9166C101.44 15.6385 100.595 17.7796 100.599 20.3397C100.574 21.9228 100.963 23.485 101.726 24.8722C102.485 26.2191 103.607 27.3259 104.964 28.0667C106.32 28.8377 107.853 29.2431 109.413 29.2433C110.937 29.2458 112.434 28.8337 113.743 28.0512C115.097 27.2557 116.21 26.109 116.966 24.7325C117.749 23.3717 118.161 21.8291 118.161 20.259C118.161 18.6889 117.749 17.1463 116.966 15.7855C116.216 14.4293 115.114 13.3005 113.777 12.5176C112.439 11.7347 110.916 11.3268 109.366 11.3368H109.378Z" fill="white"/>
<path d="M126.003 9.12018H128.846V31.3357H126.003V9.12018Z" fill="white"/>
<path d="M127.248 0.00857592C127.556 -0.0185341 127.867 0.0187973 128.161 0.1182C128.454 0.217604 128.723 0.376908 128.952 0.586007C129.186 0.788348 129.379 1.03489 129.518 1.31153C129.657 1.58817 129.74 1.88949 129.762 2.19827C129.785 2.50705 129.746 2.81723 129.649 3.11109C129.551 3.40495 129.397 3.67673 129.194 3.91089C128.997 4.14971 128.753 4.34522 128.477 4.48519C128.2 4.62515 127.898 4.70655 127.589 4.72426C127.283 4.75098 126.974 4.71372 126.683 4.61485C126.392 4.51598 126.124 4.35766 125.897 4.14993C125.616 3.91254 125.396 3.61129 125.255 3.27137C125.686 3.0525 126.044 2.7115 126.283 2.29084C126.522 1.87018 126.632 1.38848 126.599 0.905766C126.581 0.66762 126.529 0.433321 126.444 0.210364C126.698 0.0957986 126.97 0.0274657 127.248 0.00857592Z" fill="white"/>
<path d="M156.392 13.7365L154.123 15.1428C152.159 12.5517 149.475 11.255 146.07 11.2529C143.351 11.2529 141.092 12.1222 139.293 13.8607C138.427 14.6681 137.74 15.6481 137.277 16.7373C136.813 17.8265 136.583 19.0008 136.601 20.1845C136.597 21.7888 137.026 23.3644 137.843 24.745C138.649 26.1493 139.832 27.3 141.258 28.0667C142.747 28.8646 144.415 29.2695 146.104 29.2433C149.382 29.2433 152.06 27.9467 154.135 25.3534L156.405 26.8467C155.332 28.448 153.85 29.734 152.114 30.572C150.197 31.4765 148.097 31.9269 145.977 31.8883C142.459 31.8883 139.535 30.7749 137.207 28.5479C136.088 27.5134 135.2 26.2546 134.6 24.8536C134 23.4527 133.703 21.941 133.727 20.4173C133.716 18.3141 134.28 16.248 135.357 14.4412C136.42 12.6193 137.967 11.1278 139.827 10.1322C141.786 9.08488 143.979 8.55086 146.2 8.58C147.652 8.57587 149.095 8.80221 150.475 9.25057C151.726 9.6379 152.904 10.2295 153.962 11.0015C154.947 11.7466 155.778 12.678 156.405 13.7427L156.392 13.7365Z" fill="white"/>
<path d="M172.402 8.57379C175.825 8.57379 178.666 9.81558 180.924 12.2992C182.933 14.5137 184.032 17.4055 183.999 20.3955C183.967 23.3855 182.807 26.253 180.75 28.4237C178.577 30.7366 175.783 31.8945 172.402 31.8945C169.021 31.8945 166.193 30.7366 164.02 28.4237C161.96 26.2562 160.797 23.3894 160.764 20.3993C160.731 17.4093 161.831 14.5176 163.843 12.3054C166.097 9.82179 168.947 8.58 172.393 8.58L172.402 8.57379ZM172.402 11.3678C171.251 11.3565 170.111 11.5859 169.054 12.0414C167.997 12.4969 167.047 13.1684 166.265 14.0128C165.434 14.8458 164.779 15.8374 164.34 16.9286C163.9 18.0198 163.685 19.1883 163.707 20.3645C163.7 21.9324 164.101 23.475 164.871 24.8412C165.609 26.1791 166.703 27.2868 168.031 28.0419C169.364 28.7829 170.864 29.1718 172.39 29.1718C173.915 29.1718 175.415 28.7829 176.748 28.0419C178.076 27.2866 179.169 26.1789 179.906 24.8412C180.675 23.475 181.076 21.9324 181.07 20.3645C181.091 19.1871 180.873 18.0175 180.431 16.9261C179.989 15.8346 179.331 14.8437 178.496 14.0128C177.717 13.1752 176.771 12.5093 175.719 12.0576C174.668 11.6059 173.534 11.3784 172.39 11.3895L172.402 11.3678Z" fill="white"/>
</svg>
