<svg width="43" height="43" viewBox="0 0 43 43" fill="none" xmlns="http://www.w3.org/2000/svg">
<path fill-rule="evenodd" clip-rule="evenodd" d="M21.7461 0.781738C10.1427 0.781738 0.736328 10.1882 0.736328 21.7916C0.736328 33.395 10.1427 42.8014 21.7461 42.8014C33.3495 42.8014 42.756 33.395 42.756 21.7916C42.756 10.1882 33.3495 0.781738 21.7461 0.781738ZM30.5016 14.5689C31.4659 14.8335 32.2253 15.6132 32.483 16.6033C32.9514 18.3977 32.9514 22.1418 32.9514 22.1418C32.9514 22.1418 32.9514 25.8858 32.483 27.6803C32.2253 28.6704 31.4659 29.4501 30.5016 29.7148C28.7541 30.1956 21.7461 30.1956 21.7461 30.1956C21.7461 30.1956 14.7382 30.1956 12.9905 29.7148C12.0262 29.4501 11.2668 28.6704 11.0091 27.6803C10.5409 25.8858 10.5409 22.1418 10.5409 22.1418C10.5409 22.1418 10.5409 18.3977 11.0091 16.6033C11.2668 15.6132 12.0262 14.8335 12.9905 14.5689C14.7382 14.088 21.7461 14.088 21.7461 14.088C21.7461 14.088 28.7541 14.088 30.5016 14.5689Z" fill="white"/>
<path d="M19.645 25.9935V18.9902L25.2476 22.492L19.645 25.9935Z" fill="white"/>
</svg>
