<svg width="512" height="512" xmlns="http://www.w3.org/2000/svg"><path fill="none" d="M-1-1h582v402H-1z"/><g fill="#7c6645"><path d="M226 446h60c5.522 0 10-4.477 10-10v-50h50c5.522 0 10-4.477 10-10v-60c0-5.523-4.478-10-10-10h-50v-50c0-5.523-4.478-10-10-10h-60c-5.523 0-10 4.477-10 10v50h-50c-5.523 0-10 4.477-10 10v60c0 5.523 4.477 10 10 10h50v50c0 5.523 4.477 10 10 10zm-50-80v-40h50c5.523 0 10-4.477 10-10v-50h40v50c0 5.523 4.478 10 10 10h50v40h-50c-5.522 0-10 4.477-10 10v50h-40v-50c0-5.523-4.477-10-10-10h-50z"/><circle r="10" cy="502" cx="256"/><path d="M40 512h171c5.523 0 10-4.477 10-10s-4.477-10-10-10H40c-11.028 0-20-8.972-20-20V206h40v50c0 5.523 4.477 10 10 10h60c5.523 0 10-4.477 10-10v-50h232v50c0 5.523 4.478 10 10 10h60c5.522 0 10-4.477 10-10v-50h40v266c0 11.028-8.972 20-20 20H301c-5.522 0-10 4.477-10 10s4.478 10 10 10h171c22.056 0 40-17.944 40-40V136c0-22.056-17.944-40-40-40h-86V40c0-22.056-17.944-40-40-40H166c-22.056 0-40 17.944-40 40v56H40c-22.056 0-40 17.944-40 40v336c0 22.056 17.944 40 40 40zm80-266H80v-40h40v40zm312 0h-40v-40h40v40zM146 40c0-11.028 8.972-20 20-20h180c11.028 0 20 8.972 20 20v56H146V40zM40 116h432c11.028 0 20 8.972 20 20v50H20v-50c0-11.028 8.972-20 20-20z"/></g></svg>