<svg width="211.627" height="211.627" xmlns="http://www.w3.org/2000/svg"><path fill="none" d="M-1-1h582v402H-1z"/><g fill="#fff"><path d="M208.213 59.726H3.413A3.415 3.415 0 000 63.14v54.613a3.414 3.414 0 003.413 3.413H17.92v-6.827H6.827V66.553H204.8v47.787h-67.838v6.827h71.252a3.413 3.413 0 003.413-3.413V63.14a3.415 3.415 0 00-3.414-3.414z"/><path d="M211.108 61.332L176.975 6.719a3.417 3.417 0 00-2.895-1.604H37.547c-1.176 0-2.27.606-2.895 1.604L.519 61.332a3.413 3.413 0 002.895 5.221h204.8a3.413 3.413 0 002.894-5.221zM9.571 59.726L39.438 11.94h132.75l29.867 47.787H9.571v-.001zm96.242 23.894H20.48a3.414 3.414 0 000 6.826h85.333a3.414 3.414 0 000-6.826zm44.14 66.976c-.717-2.656-1.403-5.248-2.072-7.769-6.18-23.33-10.644-40.187-22.468-43.687-4.669-1.384-14.384-4.263-24.866 1.958-8.24 4.89-35.84 4.886-44.08 0-10.484-6.222-20.2-3.34-24.888-1.952-11.802 3.494-16.266 20.35-22.446 43.68-.669 2.521-1.355 5.113-2.072 7.769-5.495 20.342-5.466 39.685.07 49.277 1.964 3.405 4.545 5.552 7.668 6.381a7.48 7.48 0 001.93.253c7.436 0 14.956-10.892 22.252-21.448 3.113-4.511 6.33-9.172 8.071-10.522 1.208-.939 5.847-3.081 22.596-2.865l20.871-.015c14.283.065 18.355 2.036 19.444 2.881h.002c1.739 1.35 4.958 6.011 8.071 10.522 7.926 11.474 16.131 23.366 24.18 21.197 3.123-.829 5.704-2.976 7.668-6.381 5.535-9.594 5.564-28.937.069-49.279zm-5.98 45.858c-1.026 1.775-2.207 2.852-3.511 3.198-3.417.855-12.803-12.681-16.809-18.48-3.872-5.608-6.932-10.039-9.504-12.035-2.341-1.816-7.335-4.239-23.617-4.313l-20.84.015c-14.078-.206-22.852 1.215-26.825 4.299-2.574 1.997-5.632 6.427-9.506 12.035-4.007 5.801-13.373 19.376-16.809 18.48-1.304-.346-2.485-1.423-3.511-3.198-3.833-6.637-5.129-22.842.608-44.083.72-2.664 1.41-5.27 2.08-7.799 5.4-20.379 9.665-36.477 17.809-38.888 2.169-.642 5.338-1.582 9.039-1.582 3.18 0 6.748.693 10.409 2.862 10.257 6.086 40.789 6.086 51.046 0 7.919-4.693 15.416-2.476 19.468-1.275 8.122 2.405 12.385 18.502 17.785 38.881.671 2.529 1.36 5.134 2.08 7.799 5.736 21.242 4.439 37.447.608 44.084z"/><path d="M40.96 121.171h6.827v27.307H40.96zm69.973-.005c-8.47 0-15.36 6.89-15.36 15.36 0 8.47 6.89 15.36 15.36 15.36 8.47 0 15.36-6.89 15.36-15.36 0-8.47-6.889-15.36-15.36-15.36zm0 23.894c-4.705 0-8.533-3.828-8.533-8.533s3.828-8.533 8.533-8.533 8.533 3.828 8.533 8.533c.001 4.705-3.827 8.533-8.533 8.533zm71.68-68.267c-6.586 0-11.947 5.361-11.947 11.947 0 6.586 5.361 11.947 11.947 11.947 6.586 0 11.947-5.361 11.947-11.947 0-6.586-5.361-11.947-11.947-11.947zm0 17.067a5.126 5.126 0 01-5.12-5.12 5.126 5.126 0 015.12-5.12 5.126 5.126 0 015.12 5.12 5.126 5.126 0 01-5.12 5.12z"/><path d="M30.72 131.412h27.307v6.827H30.72z"/></g></svg>