<svg width="88" height="87" viewBox="0 0 88 87" fill="none" xmlns="http://www.w3.org/2000/svg">
<path d="M38.1038 28.853C35.2887 30.0187 32.8825 31.9931 31.1895 34.5264C29.4965 37.0597 28.5927 40.0382 28.5925 43.0852C28.5923 46.1321 29.4956 49.1107 31.1882 51.6443C32.8808 54.1778 35.2868 56.1526 38.1017 57.3188C40.9167 58.4849 44.0142 58.7902 47.0027 58.1959C49.9911 57.6016 52.7362 56.1345 54.8908 53.98C57.0454 51.8256 58.5128 49.0806 59.1073 46.0922C59.7018 43.1038 59.3968 40.0062 58.2309 37.1912M55.4051 32.7266C53.7794 30.9405 51.7575 29.5606 49.5017 28.6978C47.246 27.835 44.8193 27.5133 42.4166 27.7587M86 49.1996V36.9716C86 36.0721 85.6427 35.2094 85.0066 34.5733C84.3705 33.9373 83.5078 33.5799 82.6083 33.5799H77.0745C76.3639 31.0874 75.3728 28.6835 74.1201 26.4145L78.0223 22.514C78.3381 22.199 78.5886 21.8248 78.7595 21.4128C78.9305 21.0008 79.0184 20.5591 79.0184 20.1131C79.0184 19.667 78.9305 19.2254 78.7595 18.8134C78.5886 18.4014 78.3381 18.0271 78.0223 17.7121L69.3753 9.06684C69.0603 8.75109 68.686 8.50058 68.274 8.32966C67.862 8.15874 67.4204 8.07076 66.9743 8.07076C66.5283 8.07076 66.0866 8.15874 65.6746 8.32966C65.2626 8.50058 64.8884 8.75109 64.5734 9.06684L60.705 12.9352C58.4277 11.6633 56.013 10.6548 53.5075 9.92904V4.47911C53.5075 3.57957 53.1501 2.71689 52.5141 2.08083C51.878 1.44476 51.0153 1.0874 50.1158 1.0874H37.8878C36.9883 1.0874 36.1256 1.44476 35.4895 2.08083C34.8534 2.71689 34.4961 3.57957 34.4961 4.47911V9.85763C31.9621 10.5719 29.5183 11.5745 27.2128 12.8459L23.4302 9.06327C23.1152 8.74752 22.7409 8.49701 22.329 8.32608C21.917 8.15516 21.4753 8.06719 21.0293 8.06719C20.5832 8.06719 20.1416 8.15516 19.7296 8.32608C19.3176 8.49701 18.9433 8.74752 18.6283 9.06327L9.98123 17.7086C9.66548 18.0236 9.41497 18.3978 9.24404 18.8098C9.07312 19.2218 8.98515 19.6635 8.98515 20.1095C8.98515 20.5556 9.07312 20.9972 9.24404 21.4092C9.41497 21.8212 9.66548 22.1954 9.98123 22.5105L13.73 26.2592C12.4387 28.5733 11.4204 31.0293 10.6953 33.5781H5.3917C4.49217 33.5781 3.62949 33.9355 2.99342 34.5716C2.35736 35.2076 2 36.0703 2 36.9698V49.1978C2 50.0974 2.35736 50.9601 2.99342 51.5961C3.62949 52.2322 4.49217 52.5895 5.3917 52.5895H10.6863C11.4119 55.1382 12.4302 57.5942 13.721 59.9085L9.97229 63.6572C9.65654 63.9722 9.40603 64.3465 9.23511 64.7585C9.06419 65.1705 8.97621 65.6121 8.97621 66.0582C8.97621 66.5042 9.06419 66.9459 9.23511 67.3579C9.40603 67.7698 9.65654 68.1441 9.97229 68.4591L18.6194 77.1062C18.9344 77.4219 19.3086 77.6724 19.7206 77.8434C20.1326 78.0143 20.5743 78.1023 21.0203 78.1023C21.4664 78.1023 21.908 78.0143 22.32 77.8434C22.732 77.6724 23.1062 77.4219 23.4213 77.1062L27.2039 73.3218C29.5094 74.5931 31.9531 75.5958 34.4872 76.31V81.6885C34.4872 82.5881 34.8445 83.4508 35.4806 84.0869C36.1167 84.7229 36.9793 85.0803 37.8789 85.0803H50.1068C51.0064 85.0803 51.8691 84.7229 52.5051 84.0869C53.1412 83.4508 53.4986 82.5881 53.4986 81.6885V76.244C56.0041 75.5176 58.4188 74.5085 60.6961 73.2361L64.5644 77.1062C64.8795 77.4219 65.2537 77.6724 65.6657 77.8434C66.0777 78.0143 66.5194 78.1023 66.9654 78.1023C67.4114 78.1023 67.8531 78.0143 68.2651 77.8434C68.6771 77.6724 69.0513 77.4219 69.3664 77.1062L78.0134 68.4591C78.3292 68.1441 78.5797 67.7698 78.7506 67.3579C78.9215 66.9459 79.0095 66.5042 79.0095 66.0582C79.0095 65.6121 78.9215 65.1705 78.7506 64.7585C78.5797 64.3465 78.3292 63.9722 78.0134 63.6572L74.1112 59.7567C75.3638 57.4877 76.3549 55.0838 77.0655 52.5913H82.5994C83.0455 52.5925 83.4875 52.5056 83.9001 52.3357C84.3126 52.1658 84.6875 51.9161 85.0034 51.6011C85.3193 51.286 85.57 50.9117 85.741 50.4996C85.912 50.0875 86 49.6458 86 49.1996ZM70.3464 36.4093L67.3492 29.1761C67.2401 28.9122 67.08 28.6725 66.8782 28.4706C66.6764 28.2686 66.4367 28.1084 66.173 27.9992C65.9092 27.8899 65.6265 27.8337 65.341 27.8338C65.0555 27.8339 64.7728 27.8903 64.5091 27.9997L61.237 29.3546C60.2059 28.054 59.0303 26.8748 57.7328 25.8397L59.0841 22.5747C59.1936 22.311 59.2499 22.0283 59.25 21.7428C59.2501 21.4573 59.1939 21.1746 59.0847 20.9108C58.9754 20.6471 58.8152 20.4074 58.6133 20.2056C58.4113 20.0038 58.1716 19.8437 57.9078 19.7346L50.6745 16.7374C50.1419 16.517 49.5435 16.517 49.0109 16.7376C48.4783 16.9582 48.0551 17.3813 47.8344 17.9138L46.492 21.152C44.8319 20.9571 43.155 20.9517 41.4937 21.1359L40.1602 17.9228C39.9391 17.3901 39.5156 16.967 38.9827 16.7464C38.4499 16.5259 37.8512 16.5258 37.3184 16.7464L30.0851 19.7436C29.8213 19.8527 29.5815 20.0127 29.3796 20.2145C29.1777 20.4164 29.0175 20.656 28.9082 20.9198C28.799 21.1835 28.7428 21.4663 28.7428 21.7518C28.7429 22.0373 28.7993 22.32 28.9087 22.5837L30.2261 25.7665C28.904 26.8101 27.7061 28.002 26.6559 29.3189L23.4891 28.0086C23.2254 27.8992 22.9427 27.8428 22.6572 27.8428C22.3717 27.8427 22.089 27.8989 21.8252 28.0081C21.5615 28.1174 21.3218 28.2775 21.12 28.4795C20.9182 28.6814 20.7581 28.9212 20.649 29.185L17.6518 36.4182C17.4313 36.9511 17.4313 37.5498 17.6519 38.0826C17.8725 38.6155 18.2955 39.039 18.8282 39.2601L21.9682 40.5597C21.7727 42.2451 21.7727 43.9475 21.9682 45.633L18.8353 46.9307C18.3028 47.1515 17.8798 47.5747 17.6592 48.1072C17.4386 48.6398 17.4385 49.2382 17.659 49.7708L20.6561 57.0041C20.8765 57.5369 21.2996 57.9604 21.8322 58.1814C22.3648 58.4023 22.9634 58.4026 23.4963 58.1823L26.6291 56.8845C27.6837 58.2131 28.889 59.4148 30.2208 60.4654L28.9212 63.6054C28.8118 63.8691 28.7554 64.1518 28.7554 64.4373C28.7553 64.7228 28.8115 65.0055 28.9207 65.2693C29.03 65.5331 29.1901 65.7727 29.3921 65.9746C29.594 66.1764 29.8337 66.3364 30.0976 66.4455L37.3308 69.4427C37.8637 69.6633 38.4624 69.6632 38.9952 69.4427C39.5281 69.2221 39.9516 68.799 40.1727 68.2663L41.483 65.0996C43.1584 65.2879 44.85 65.2825 46.5241 65.0835L47.8433 68.2663C48.0641 68.7989 48.4873 69.2219 49.0198 69.4425C49.5524 69.6631 50.1508 69.6632 50.6834 69.4427L57.9167 66.4455C58.4495 66.2251 58.873 65.8021 59.094 65.2695C59.3149 64.7368 59.3152 64.1383 59.0949 63.6054L57.7596 60.3922C59.064 59.3488 60.245 58.16 61.2798 56.8488L64.518 58.1912C65.0509 58.4116 65.6494 58.4112 66.1821 58.1903C66.7147 57.9693 67.1377 57.5459 67.3581 57.013L70.3553 49.7798C70.5758 49.2471 70.5757 48.6487 70.3551 48.1162C70.1345 47.5836 69.7115 47.1604 69.1789 46.9397L65.914 45.5865C66.1014 43.9377 66.1014 42.2729 65.914 40.624L69.1861 39.2691C69.4506 39.1581 69.6905 38.996 69.8921 38.792C70.0937 38.5881 70.2531 38.3462 70.3609 38.0805C70.4687 37.8147 70.523 37.5302 70.5205 37.2434C70.518 36.9566 70.4588 36.6732 70.3464 36.4093Z" stroke="url(#paint0_linear_149_142)" stroke-width="2.09929" stroke-linecap="round" stroke-linejoin="round"/>
<defs>
<linearGradient id="paint0_linear_149_142" x1="44" y1="1.0874" x2="44" y2="85.0803" gradientUnits="userSpaceOnUse">
<stop stop-color="#5A2FED"/>
<stop offset="1" stop-color="#C67EFF"/>
</linearGradient>
</defs>
</svg>
