<svg height="512pt" viewBox="0 1 512 511" width="512pt" xmlns="http://www.w3.org/2000/svg"><path d="m52.964844 159.398438h-35.308594c-9.738281.027343-17.6289062 7.914062-17.65625 17.652343v273.65625c.0273438 9.738281 7.917969 17.625 17.65625 17.65625h476.6875c9.738281-.03125 17.628906-7.917969 17.65625-17.65625v-273.65625c-.027344-9.738281-7.917969-17.625-17.65625-17.652343zm0 0" fill="#bdc3c7"/><path d="m66.96875 159.398438h-32.875c-9.398438.371093-16.738281 8.253906-16.4375 17.652343v273.65625c-.300781 9.398438 7.039062 17.28125 16.4375 17.65625h443.8125c9.398438-.375 16.738281-8.257812 16.4375-17.65625v-273.65625c.300781-9.398437-7.039062-17.28125-16.4375-17.652343zm0 0" fill="#e6e7e8"/><g fill="#bdc3c7"><path d="m44.136719 441.878906c-4.875 0-8.828125-3.953125-8.828125-8.828125v-220.6875c0-4.875 3.953125-8.828125 8.828125-8.828125s8.828125 3.953125 8.828125 8.828125v220.6875c0 4.875-3.953125 8.828125-8.828125 8.828125zm0 0"/><path d="m79.449219 441.878906c-4.875 0-8.828125-3.953125-8.828125-8.828125v-220.6875c0-4.875 3.953125-8.828125 8.828125-8.828125s8.828125 3.953125 8.828125 8.828125v220.6875c0 4.875-3.953125 8.828125-8.828125 8.828125zm0 0"/><path d="m114.757812 441.878906c-4.875 0-8.828124-3.953125-8.828124-8.828125v-220.6875c0-4.875 3.953124-8.828125 8.828124-8.828125s8.828126 3.953125 8.828126 8.828125v220.6875c0 4.875-3.953126 8.828125-8.828126 8.828125zm0 0"/><path d="m150.070312 441.878906c-4.875 0-8.828124-3.953125-8.828124-8.828125v-220.6875c0-4.875 3.953124-8.828125 8.828124-8.828125s8.828126 3.953125 8.828126 8.828125v220.6875c0 4.875-3.953126 8.828125-8.828126 8.828125zm0 0"/><path d="m185.378906 441.878906c-4.875 0-8.828125-3.953125-8.828125-8.828125v-220.6875c0-4.875 3.953125-8.828125 8.828125-8.828125s8.828125 3.953125 8.828125 8.828125v220.6875c0 4.875-3.953125 8.828125-8.828125 8.828125zm0 0"/><path d="m220.691406 441.878906c-4.878906 0-8.828125-3.953125-8.828125-8.828125v-220.6875c0-4.875 3.949219-8.828125 8.828125-8.828125 4.875 0 8.824219 3.953125 8.824219 8.828125v220.6875c0 4.875-3.949219 8.828125-8.824219 8.828125zm0 0"/><path d="m256 441.878906c-4.875 0-8.828125-3.953125-8.828125-8.828125v-220.6875c0-4.875 3.953125-8.828125 8.828125-8.828125s8.828125 3.953125 8.828125 8.828125v220.6875c0 4.875-3.953125 8.828125-8.828125 8.828125zm0 0"/><path d="m291.308594 441.878906c-4.875 0-8.824219-3.953125-8.824219-8.828125v-220.6875c0-4.875 3.949219-8.828125 8.824219-8.828125 4.878906 0 8.828125 3.953125 8.828125 8.828125v220.6875c0 4.875-3.949219 8.828125-8.828125 8.828125zm0 0"/><path d="m326.621094 441.878906c-4.875 0-8.828125-3.953125-8.828125-8.828125v-220.6875c0-4.875 3.953125-8.828125 8.828125-8.828125s8.828125 3.953125 8.828125 8.828125v220.6875c0 4.875-3.953125 8.828125-8.828125 8.828125zm0 0"/><path d="m361.929688 441.878906c-4.875 0-8.828126-3.953125-8.828126-8.828125v-220.6875c0-4.875 3.953126-8.828125 8.828126-8.828125s8.828124 3.953125 8.828124 8.828125v220.6875c0 4.875-3.953124 8.828125-8.828124 8.828125zm0 0"/><path d="m397.242188 441.878906c-4.875 0-8.828126-3.953125-8.828126-8.828125v-220.6875c0-4.875 3.953126-8.828125 8.828126-8.828125s8.828124 3.953125 8.828124 8.828125v220.6875c0 4.875-3.953124 8.828125-8.828124 8.828125zm0 0"/><path d="m432.550781 441.878906c-4.875 0-8.828125-3.953125-8.828125-8.828125v-220.6875c0-4.875 3.953125-8.828125 8.828125-8.828125s8.828125 3.953125 8.828125 8.828125v220.6875c0 4.875-3.953125 8.828125-8.828125 8.828125zm0 0"/><path d="m467.863281 441.878906c-4.875 0-8.828125-3.953125-8.828125-8.828125v-220.6875c0-4.875 3.953125-8.828125 8.828125-8.828125s8.828125 3.953125 8.828125 8.828125v220.6875c0 4.875-3.953125 8.828125-8.828125 8.828125zm0 0"/></g><path d="m35.308594 468.363281h35.3125v26.480469c0 9.75-7.90625 17.65625-17.65625 17.65625s-17.65625-7.90625-17.65625-17.65625zm0 0" fill="#95a5a5"/><path d="m441.378906 468.363281h35.3125v26.480469c0 9.75-7.90625 17.65625-17.65625 17.65625s-17.65625-7.90625-17.65625-17.65625zm0 0" fill="#95a5a5"/><path d="m52.039062 71.121094h-16.441406c-3.644531-.128906-6.894531-2.332032-8.355468-5.675782-1.460938-3.339843-.878907-7.222656 1.503906-9.988281l43.851562-51.703125c1.675782-2.058594 4.195313-3.253906 6.851563-3.253906s5.171875 1.195312 6.851562 3.253906l43.851563 51.703125c2.378906 2.765625 2.964844 6.648438 1.503906 9.988281-1.460938 3.34375-4.710938 5.546876-8.355469 5.675782h-17.371093v97.101562c-.011719 4.871094-3.957032 8.816406-8.828126 8.828125h-35.308593c-4.871094-.011719-8.8125-3.957031-8.828125-8.828125v-97.101562zm0 0" fill="#e64c3c"/><path d="m405.144531 71.121094h-16.445312c-3.644531-.128906-6.894531-2.332032-8.355469-5.675782-1.460938-3.339843-.875-7.222656 1.503906-9.988281l43.851563-51.703125c1.679687-2.058594 4.195312-3.253906 6.851562-3.253906s5.175781 1.195312 6.851563 3.253906l43.851562 51.703125c2.382813 2.765625 2.964844 6.648438 1.503906 9.988281-1.460937 3.34375-4.710937 5.546876-8.355468 5.675782h-17.367188v97.101562c-.015625 4.871094-3.957031 8.816406-8.828125 8.828125h-35.308593c-4.871094-.011719-8.816407-3.957031-8.828126-8.828125v-97.101562zm0 0" fill="#e64c3c"/><path d="m185.378906 132.914062c-3.546875 0-6.75-2.125-8.132812-5.394531-1.378906-3.269531-.667969-7.046875 1.804687-9.589843 4.46875-5.800782 6.714844-13.011719 6.328125-20.328126.394532-7.320312-1.855468-14.539062-6.34375-20.339843-7.78125-9.042969-11.824218-20.707031-11.3125-32.625-.515625-11.964844 3.570313-23.675781 11.414063-32.722657 2.21875-2.292968 5.5-3.214843 8.585937-2.40625 3.085938.808594 5.496094 3.21875 6.304688 6.304688s-.113282 6.367188-2.40625 8.582031c-4.414063 5.796875-6.625 12.96875-6.242188 20.242188-.394531 7.324219 1.859375 14.542969 6.34375 20.339843 7.78125 9.042969 11.824219 20.710938 11.3125 32.625.515625 11.96875-3.566406 23.675782-11.414062 32.726563-1.652344 1.65625-3.898438 2.589844-6.242188 2.585937zm0 0" fill="#c03a2b"/><path d="m256 132.914062c-3.546875 0-6.75-2.125-8.132812-5.394531-1.378907-3.269531-.667969-7.046875 1.804687-9.589843 4.46875-5.800782 6.714844-13.011719 6.328125-20.328126.394531-7.320312-1.855469-14.539062-6.34375-20.339843-7.78125-9.042969-11.824219-20.707031-11.3125-32.625-.515625-11.964844 3.566406-23.675781 11.414062-32.722657 2.21875-2.292968 5.5-3.214843 8.585938-2.40625 3.085938.808594 5.496094 3.21875 6.304688 6.304688.808593 3.085938-.113282 6.367188-2.40625 8.582031-4.414063 5.796875-6.625 12.96875-6.242188 20.242188-.394531 7.324219 1.855469 14.542969 6.34375 20.339843 7.78125 9.042969 11.824219 20.710938 11.3125 32.625.515625 11.96875-3.566406 23.675782-11.414062 32.726563-1.65625 1.65625-3.902344 2.589844-6.242188 2.585937zm0 0" fill="#c03a2b"/><path d="m326.621094 132.914062c-3.546875 0-6.753906-2.125-8.132813-5.394531-1.378906-3.269531-.667969-7.046875 1.804688-9.589843 4.46875-5.800782 6.714843-13.011719 6.328125-20.328126.394531-7.320312-1.859375-14.539062-6.34375-20.339843-7.78125-9.042969-11.824219-20.707031-11.3125-32.625-.515625-11.964844 3.566406-23.675781 11.414062-32.722657 2.21875-2.292968 5.5-3.214843 8.585938-2.40625 3.085937.808594 5.496094 3.21875 6.304687 6.304688.808594 3.085938-.113281 6.367188-2.40625 8.582031-4.414062 5.796875-6.625 12.96875-6.242187 20.242188-.394532 7.324219 1.855468 14.542969 6.34375 20.339843 7.78125 9.042969 11.824218 20.710938 11.3125 32.625.515625 11.96875-3.570313 23.675782-11.414063 32.726563-1.65625 1.65625-3.902343 2.589844-6.242187 2.585937zm0 0" fill="#c03a2b"/></svg>