<svg width="20" height="24" viewBox="0 0 20 24" fill="none" xmlns="http://www.w3.org/2000/svg">
<path d="M15.9968 12.8894C16.008 12.0214 16.2385 11.1704 16.667 10.4154C17.0954 9.66053 17.7079 9.02626 18.4474 8.57164C17.9776 7.90074 17.3579 7.34862 16.6374 6.95912C15.917 6.56963 15.1156 6.35349 14.297 6.32788C12.5507 6.14458 10.8578 7.3728 9.96798 7.3728C9.06091 7.3728 7.69085 6.34608 6.21551 6.37643C5.26122 6.40726 4.3312 6.68476 3.51605 7.18189C2.70089 7.67902 2.02842 8.37883 1.56414 9.21313C-0.446972 12.6951 1.05314 17.8125 2.97965 20.6271C3.94353 22.0054 5.07002 23.5449 6.54403 23.4903C7.98643 23.4305 8.52514 22.5705 10.2662 22.5705C11.9912 22.5705 12.4966 23.4903 14.0005 23.4556C15.5483 23.4305 16.5234 22.0712 17.4535 20.6799C18.146 19.6979 18.679 18.6125 19.0325 17.4641C18.1333 17.0837 17.3659 16.4471 16.8261 15.6336C16.2863 14.8201 15.9978 13.8657 15.9968 12.8894Z" fill="black"/>
<path d="M13.1561 4.47681C14 3.46374 14.4158 2.1616 14.3151 0.84692C13.0258 0.982335 11.8349 1.59853 10.9795 2.57274C10.5614 3.04866 10.2411 3.60234 10.037 4.20213C9.83293 4.80191 9.74906 5.43603 9.79021 6.06824C10.4351 6.07488 11.0731 5.9351 11.6561 5.65944C12.2391 5.38378 12.752 4.97942 13.1561 4.47681Z" fill="black"/>
</svg>
