<svg width="24.000000" height="24.000000" viewBox="0 0 24 24" fill="none" xmlns="http://www.w3.org/2000/svg" xmlns:xlink="http://www.w3.org/1999/xlink">
	<desc>
			Created with Pixso.
	</desc>
	<defs/>
	<rect width="24.000000" height="24.000000" fill="#FFFFFF" fill-opacity="0"/>
	<path d="M13.8286 19C13.5366 19 13.2467 18.8729 13.0487 18.627L8.2207 12.627C7.92261 12.256 7.92664 11.726 8.23169 11.36L13.2317 5.35999C13.5847 4.93604 14.2157 4.87903 14.6406 5.23193C15.0647 5.58496 15.1217 6.21594 14.7677 6.64001L10.2926 12.011L14.6077 17.3729C14.9536 17.803 14.8856 18.433 14.4547 18.7789C14.2706 18.928 14.0487 19 13.8286 19Z" fill="#151515" fill-opacity="1.000000" fill-rule="evenodd"/>
	<mask id="mask10_58" mask-type="alpha" maskUnits="userSpaceOnUse" x="8.000000" y="5.000488" width="6.999980" height="13.999496">
		<path d="M13.8286 19C13.5366 19 13.2467 18.8729 13.0487 18.627L8.2207 12.627C7.92261 12.256 7.92664 11.726 8.23169 11.36L13.2317 5.35999C13.5847 4.93604 14.2157 4.87903 14.6406 5.23193C15.0647 5.58496 15.1217 6.21594 14.7677 6.64001L10.2926 12.011L14.6077 17.3729C14.9536 17.803 14.8856 18.433 14.4547 18.7789C14.2706 18.928 14.0487 19 13.8286 19Z" fill="#231F20" fill-opacity="1.000000" fill-rule="evenodd"/>
	</mask>
	<g mask="url(#mask10_58)">
		<rect width="24.000000" height="24.000000" fill="#FFFFFF" fill-opacity="0"/>
		<rect width="24.000000" height="24.000000" fill="#151515" fill-opacity="1.000000"/>
		<rect width="24.000000" height="24.000000" stroke="#979797" stroke-opacity="0" stroke-width="0.000000"/>
	</g>
</svg>
