<svg width="76" height="80" fill="none" xmlns="http://www.w3.org/2000/svg"><g filter="url(#filter0_d)"><path d="M15 17a7 7 0 017-7h32a7 7 0 017 7v32a7 7 0 01-7 7H37.233c-1.416 0-2.76.623-3.675 1.705l-.414.489c-1.838 2.171-5.236 2.007-6.855-.332A4.323 4.323 0 0022.735 56h-1.173A6.562 6.562 0 0115 49.438V17z" fill="#000"/></g><g clip-path="url(#clip0)" fill="#F4CB38"><path d="M42.311 33.59a6.35 6.35 0 00-4.808-3.785 6.35 6.35 0 00-5.782 2.006l-3.534 3.898a4.009 4.009 0 00-1.027 2.317 4.01 4.01 0 00.556 2.473 4.01 4.01 0 001.922 1.653 4.009 4.009 0 002.529.181l.057-.014a7.935 7.935 0 016.227 1.07 4.014 4.014 0 002.448.655 4.01 4.01 0 002.357-.934 4.008 4.008 0 001.334-2.155 4.01 4.01 0 00-.213-2.526l-2.066-4.839zm-12.635-2.129c.887-.18 1.633-.745 2.1-1.59.445-.806.582-1.776.388-2.732-.196-.957-.702-1.795-1.426-2.363-.76-.595-1.668-.824-2.553-.643-1.782.362-2.897 2.301-2.486 4.323.328 1.61 1.527 2.792 2.902 3.023.35.06.713.056 1.075-.018zm6.009-2.509c2.092.351 4.12-1.302 4.52-3.685.4-2.384-.975-4.61-3.067-4.96-2.092-.352-4.12 1.301-4.52 3.685-.4 2.383.975 4.608 3.067 4.96zm6.374 2.163c.304.16.623.267.95.322 1.526.256 3.2-.605 4.053-2.216.492-.927.645-1.97.431-2.934-.224-1.01-.818-1.816-1.672-2.27-.855-.452-1.855-.491-2.817-.11-.918.366-1.695 1.077-2.186 2.005-1.037 1.956-.48 4.29 1.24 5.203zm8.074.838v-.001c-1.264-1.308-3.5-1.209-4.984.222-1.483 1.431-1.663 3.66-.402 4.97.46.477 1.05.767 1.685.874 1.107.186 2.354-.186 3.298-1.096 1.483-1.431 1.664-3.66.403-4.97z"/></g><defs><clipPath id="clip0"><path fill="#fff" transform="rotate(9.539 -88.21 172.345)" d="M0 0h26.189v26.189H0z"/></clipPath><filter id="filter0_d" x="0" y="0" width="76" height="79.725" filterUnits="userSpaceOnUse" color-interpolation-filters="sRGB"><feFlood flood-opacity="0" result="BackgroundImageFix"/><feColorMatrix in="SourceAlpha" values="0 0 0 0 0 0 0 0 0 0 0 0 0 0 0 0 0 0 127 0"/><feOffset dy="5"/><feGaussianBlur stdDeviation="7.5"/><feColorMatrix values="0 0 0 0 0 0 0 0 0 0 0 0 0 0 0 0 0 0 0.33 0"/><feBlend in2="BackgroundImageFix" result="effect1_dropShadow"/><feBlend in="SourceGraphic" in2="effect1_dropShadow" result="shape"/></filter></defs></svg>